<svg version="1.1" id="Layer_1" xmlns="http://www.w3.org/2000/svg" xmlns:xlink="http://www.w3.org/1999/xlink" x="0px" y="0px"
	 width="100%" viewBox="0 0 1449 228" enable-background="new 0 0 1449 228" xml:space="preserve">
<path fill="#FFFFFE" opacity="1.000000" stroke="none" 
	d="
M1063.000000,229.000000 
	C708.666748,229.000000 354.833557,229.000000 1.000237,229.000000 
	C1.000158,153.000122 1.000158,77.000259 1.000079,1.000288 
	C483.999725,1.000192 966.999451,1.000192 1449.999268,1.000096 
	C1449.999512,76.999702 1449.999512,152.999405 1449.999756,228.999557 
	C1321.166626,229.000000 1192.333374,229.000000 1063.000000,229.000000 
M460.055756,169.600235 
	C472.066345,129.349411 484.076935,89.098587 496.267487,48.244743 
	C486.851868,48.244743 478.066833,48.427086 469.295959,48.154701 
	C465.803589,48.046246 464.455719,49.148590 463.520752,52.520203 
	C454.860077,83.751770 445.991882,114.925758 437.190765,146.118393 
	C436.436768,148.790710 435.731506,151.476807 434.901459,154.532578 
	C426.219666,120.004601 417.631897,86.071854 409.237274,52.091393 
	C408.473358,48.999142 407.266907,48.101658 404.217773,48.177620 
	C396.225403,48.376736 388.217896,48.438782 380.230469,48.157352 
	C376.603455,48.029556 375.041565,49.099064 374.157166,52.728848 
	C369.238281,72.916946 364.043152,93.037689 358.952484,113.183990 
	C355.499054,126.850838 352.061951,140.521790 348.457886,154.824539 
	C347.974884,153.173218 347.680878,152.225632 347.420288,151.268982 
	C338.465668,118.392906 329.532959,85.510841 320.505035,52.654922 
	C320.073334,51.083801 318.842163,48.511021 317.920776,48.483299 
	C307.881104,48.181194 297.828979,48.294220 287.637573,48.294220 
	C287.783691,49.515091 287.772797,50.018452 287.909027,50.478207 
	C301.885895,97.645584 315.849548,144.816971 329.991089,191.934967 
	C330.373962,193.210678 332.660400,194.699326 334.101105,194.744247 
	C342.590057,195.008926 351.096863,194.697586 359.586060,194.958191 
	C363.197418,195.069046 364.743805,194.039703 365.691925,190.379242 
	C371.318115,168.657516 377.344330,147.039688 383.038513,125.335098 
	C386.151428,113.469566 388.875580,101.502045 391.489960,90.752579 
	C400.460480,124.807274 409.698944,159.879135 418.871002,194.698914 
	C430.617706,194.698914 441.421387,194.698914 452.541992,194.698914 
	C455.006866,186.550613 457.450806,178.471619 460.055756,169.600235 
M913.471680,135.997955 
	C920.798096,125.390877 928.124512,114.783798 936.372864,102.842018 
	C936.372864,134.292160 936.372864,164.257980 936.372864,194.311768 
	C947.307495,194.311768 957.541443,194.311768 967.792542,194.311768 
	C967.792542,145.564484 967.792542,97.149918 967.792542,48.243629 
	C960.262146,48.243629 952.968933,48.428623 945.691956,48.164261 
	C942.143738,48.035355 939.978699,49.149654 937.924133,52.118298 
	C924.663574,71.278061 911.194946,90.293915 897.783325,109.349037 
	C895.710938,112.293549 893.580872,115.197395 891.223206,118.473289 
	C889.954651,116.767471 888.955261,115.484612 888.019897,114.156654 
	C873.355652,93.337868 858.712097,72.504501 844.012268,51.710880 
	C843.097107,50.416321 841.785767,48.478027 840.607727,48.440502 
	C831.871521,48.162243 823.122375,48.289684 814.527100,48.289684 
	C814.527100,97.475441 814.527100,145.859955 814.527100,194.341492 
	C825.134705,194.341492 835.382141,194.341492 846.232544,194.341492 
	C846.232544,163.960693 846.232544,133.877777 846.232544,103.516594 
	C861.299438,125.099640 876.031494,146.202957 890.773743,167.320938 
	C891.560425,166.754669 891.888550,166.622726 892.059875,166.380066 
	C899.068115,156.455338 906.062195,146.520691 913.471680,135.997955 
M694.559570,162.227341 
	C696.292847,161.922012 698.021057,161.387115 699.760254,161.348892 
	C710.419922,161.114685 721.090393,161.180435 731.737793,160.707581 
	C734.551575,160.582626 735.919128,161.356445 737.298767,163.561691 
	C740.829590,169.205353 745.283569,174.379547 748.095947,180.341705 
	C753.595215,191.999710 761.804260,196.971420 774.796875,194.801422 
	C780.717834,193.812515 786.941040,194.633377 794.152100,194.633377 
	C783.595276,179.697235 773.741272,165.755493 763.757812,151.630615 
	C764.940796,150.857208 765.892273,150.242477 766.836487,149.616791 
	C787.341553,136.028214 795.951599,112.668846 789.198242,88.952301 
	C782.719238,66.199348 762.261169,50.228802 736.182312,49.093674 
	C713.726257,48.116238 691.211731,48.479637 668.723083,48.254490 
	C666.931152,48.236549 665.138916,48.252125 663.199829,48.252125 
	C663.199829,97.268608 663.199829,145.784821 663.199829,194.332092 
	C673.697205,194.332092 683.792908,194.332092 694.346924,194.332092 
	C694.346924,183.724808 694.346924,173.414597 694.559570,162.227341 
M1175.854614,190.711136 
	C1190.204834,196.542038 1205.041992,198.333054 1220.375000,196.131088 
	C1278.609741,187.767975 1302.007935,124.994507 1273.847290,80.659256 
	C1256.642700,53.572826 1225.031250,41.371193 1191.021729,47.867863 
	C1159.186890,53.949108 1134.562012,79.993378 1131.104126,111.239075 
	C1127.226196,146.281097 1144.270142,176.871857 1175.854614,190.711136 
M149.497955,54.887852 
	C180.218445,65.012749 200.952347,93.759933 200.892807,126.050926 
	C200.889587,127.792313 200.780472,130.142365 201.784332,131.181320 
	C210.539322,140.242371 219.537170,149.068787 228.566528,158.068192 
	C244.173553,123.490593 238.242966,74.753006 201.441620,42.341106 
	C163.027145,8.508480 109.423676,6.619482 69.065369,36.922825 
	C26.266577,69.058624 16.968670,118.702377 28.648611,151.975204 
	C29.087805,151.751801 29.602995,151.626022 29.925222,151.305984 
	C39.379066,141.916245 48.867283,132.559540 58.179653,123.031059 
	C59.272526,121.912827 59.827026,119.846336 59.879990,118.195343 
	C61.379078,71.464615 104.382248,40.672188 149.497955,54.887852 
M521.467590,190.036819 
	C523.632019,184.999481 525.932251,180.014587 527.905457,174.903412 
	C528.942749,172.216385 530.333740,171.138519 533.365356,171.157455 
	C555.682129,171.296875 578.000549,171.295761 600.317383,171.156418 
	C603.198364,171.138412 604.387451,172.237305 605.365662,174.693573 
	C607.639282,180.402786 610.072144,186.055969 612.684631,191.617188 
	C613.270386,192.864059 614.837830,194.475281 615.986755,194.502350 
	C625.733704,194.731964 635.488464,194.633575 645.429199,194.633575 
	C645.266602,193.608353 645.287903,193.097885 645.104309,192.676682 
	C624.524963,145.462555 603.952820,98.245171 583.221619,51.097736 
	C582.635132,49.763866 580.371704,48.427479 578.843933,48.372169 
	C571.192627,48.095169 563.516357,48.472149 555.868713,48.148849 
	C552.080994,47.988724 550.400024,49.395397 548.941284,52.761086 
	C529.847229,96.817184 510.600098,140.806976 491.403717,184.818756 
	C490.101593,187.804138 488.897583,190.832321 487.328461,194.609802 
	C498.039124,194.609802 507.964020,194.732666 517.876648,194.439911 
	C518.999084,194.406769 520.052429,192.033295 521.467590,190.036819 
M1003.247253,110.195107 
	C1007.033386,113.659111 1010.465210,117.649147 1014.674622,120.484657 
	C1025.614990,127.854050 1038.331299,130.793427 1050.900146,134.068146 
	C1057.470215,135.779953 1064.206665,137.418304 1070.289185,140.308182 
	C1080.365112,145.095322 1080.954956,156.171936 1071.889893,162.752151 
	C1069.640015,164.385376 1067.007080,165.629089 1064.379272,166.578796 
	C1055.137695,169.918884 1045.681519,169.060638 1036.240845,167.575089 
	C1024.029663,165.653610 1013.305969,160.201538 1002.921570,152.929260 
	C999.594238,159.885696 996.660767,166.560272 993.231506,172.969559 
	C991.404785,176.383728 992.240479,178.072205 995.156555,180.249435 
	C1011.023376,192.096359 1029.120728,196.636230 1048.525513,196.980484 
	C1064.462524,197.263214 1079.738770,194.588364 1093.227295,185.463562 
	C1117.894531,168.776581 1117.359497,134.546356 1092.281250,118.635712 
	C1079.977051,110.829552 1066.016357,107.634560 1052.184082,103.969299 
	C1046.279907,102.404816 1040.219727,100.678062 1034.916016,97.773369 
	C1026.668335,93.256477 1026.895752,83.206085 1035.021729,78.432823 
	C1037.820801,76.788605 1041.155762,75.339806 1044.317139,75.176064 
	C1051.240967,74.817429 1058.423950,74.326378 1065.109741,75.740425 
	C1074.719116,77.772835 1083.979858,81.453888 1093.855347,84.578674 
	C1097.167847,77.540665 1100.879028,69.655487 1104.629028,61.687885 
	C1094.748535,55.082577 1084.590576,50.638680 1073.562012,48.425617 
	C1053.842896,44.468689 1034.401245,44.383400 1016.338867,54.802303 
	C996.275879,66.375191 990.633118,89.861084 1003.247253,110.195107 
M59.873146,153.373001 
	C53.865067,159.357162 47.856987,165.341339 42.250431,170.925583 
	C51.335621,180.094193 60.184982,189.024796 69.381477,198.305740 
	C89.018761,178.846100 108.923607,159.121323 129.987259,138.248199 
	C150.370789,159.226746 170.269058,179.705856 189.350067,199.343842 
	C198.157303,190.525513 206.453506,182.218872 213.893494,174.769531 
	C185.176208,145.886078 155.995544,116.536560 126.233185,86.601982 
	C104.467346,108.503998 82.420509,130.688766 59.873146,153.373001 
M1341.058838,94.500000 
	C1341.058838,79.232048 1341.058838,63.964100 1341.058838,48.529453 
	C1330.290894,48.529453 1320.066406,48.529453 1309.714966,48.529453 
	C1309.714966,97.322983 1309.714966,145.821243 1309.714966,194.271347 
	C1348.648682,194.271347 1387.183472,194.271347 1425.579224,194.271347 
	C1425.579224,185.160339 1425.579224,176.436966 1425.579224,167.279938 
	C1397.300903,167.279938 1369.400146,167.279938 1341.058838,167.279938 
	C1341.058838,143.055954 1341.058838,119.277977 1341.058838,94.500000 
M131.999893,182.496475 
	C129.914673,180.200287 127.829453,177.904099 125.527977,175.369766 
	C113.784431,188.166107 102.740227,200.200409 91.123756,212.858276 
	C115.369034,212.858276 138.458664,212.858276 162.235306,212.858276 
	C151.954773,202.533798 142.228088,192.765549 131.999893,182.496475 
z"/>
<path fill="#4B4B4B" opacity="1.000000" stroke="none" 
	d="
M459.975220,169.996429 
	C457.450806,178.471619 455.006866,186.550613 452.541992,194.698914 
	C441.421387,194.698914 430.617706,194.698914 418.871002,194.698914 
	C409.698944,159.879135 400.460480,124.807274 391.489960,90.752579 
	C388.875580,101.502045 386.151428,113.469566 383.038513,125.335098 
	C377.344330,147.039688 371.318115,168.657516 365.691925,190.379242 
	C364.743805,194.039703 363.197418,195.069046 359.586060,194.958191 
	C351.096863,194.697586 342.590057,195.008926 334.101105,194.744247 
	C332.660400,194.699326 330.373962,193.210678 329.991089,191.934967 
	C315.849548,144.816971 301.885895,97.645584 287.909027,50.478207 
	C287.772797,50.018452 287.783691,49.515091 287.637573,48.294220 
	C297.828979,48.294220 307.881104,48.181194 317.920776,48.483299 
	C318.842163,48.511021 320.073334,51.083801 320.505035,52.654922 
	C329.532959,85.510841 338.465668,118.392906 347.420288,151.268982 
	C347.680878,152.225632 347.974884,153.173218 348.457886,154.824539 
	C352.061951,140.521790 355.499054,126.850838 358.952484,113.183990 
	C364.043152,93.037689 369.238281,72.916946 374.157166,52.728848 
	C375.041565,49.099064 376.603455,48.029556 380.230469,48.157352 
	C388.217896,48.438782 396.225403,48.376736 404.217773,48.177620 
	C407.266907,48.101658 408.473358,48.999142 409.237274,52.091393 
	C417.631897,86.071854 426.219666,120.004601 434.901459,154.532578 
	C435.731506,151.476807 436.436768,148.790710 437.190765,146.118393 
	C445.991882,114.925758 454.860077,83.751770 463.520752,52.520203 
	C464.455719,49.148590 465.803589,48.046246 469.295959,48.154701 
	C478.066833,48.427086 486.851868,48.244743 496.267487,48.244743 
	C484.076935,89.098587 472.066345,129.349411 459.975220,169.996429 
z"/>
<path fill="#4B4B4B" opacity="1.000000" stroke="none" 
	d="
M913.264893,136.292618 
	C906.062195,146.520691 899.068115,156.455338 892.059875,166.380066 
	C891.888550,166.622726 891.560425,166.754669 890.773743,167.320938 
	C876.031494,146.202957 861.299438,125.099640 846.232544,103.516594 
	C846.232544,133.877777 846.232544,163.960693 846.232544,194.341492 
	C835.382141,194.341492 825.134705,194.341492 814.527100,194.341492 
	C814.527100,145.859955 814.527100,97.475441 814.527100,48.289684 
	C823.122375,48.289684 831.871521,48.162243 840.607727,48.440502 
	C841.785767,48.478027 843.097107,50.416321 844.012268,51.710880 
	C858.712097,72.504501 873.355652,93.337868 888.019897,114.156654 
	C888.955261,115.484612 889.954651,116.767471 891.223206,118.473289 
	C893.580872,115.197395 895.710938,112.293549 897.783325,109.349037 
	C911.194946,90.293915 924.663574,71.278061 937.924133,52.118298 
	C939.978699,49.149654 942.143738,48.035355 945.691956,48.164261 
	C952.968933,48.428623 960.262146,48.243629 967.792542,48.243629 
	C967.792542,97.149918 967.792542,145.564484 967.792542,194.311768 
	C957.541443,194.311768 947.307495,194.311768 936.372864,194.311768 
	C936.372864,164.257980 936.372864,134.292160 936.372864,102.842018 
	C928.124512,114.783798 920.798096,125.390877 913.264893,136.292618 
z"/>
<path fill="#4B4B4B" opacity="1.000000" stroke="none" 
	d="
M694.453247,162.665863 
	C694.346924,173.414597 694.346924,183.724808 694.346924,194.332092 
	C683.792908,194.332092 673.697205,194.332092 663.199829,194.332092 
	C663.199829,145.784821 663.199829,97.268608 663.199829,48.252125 
	C665.138916,48.252125 666.931152,48.236549 668.723083,48.254490 
	C691.211731,48.479637 713.726257,48.116238 736.182312,49.093674 
	C762.261169,50.228802 782.719238,66.199348 789.198242,88.952301 
	C795.951599,112.668846 787.341553,136.028214 766.836487,149.616791 
	C765.892273,150.242477 764.940796,150.857208 763.757812,151.630615 
	C773.741272,165.755493 783.595276,179.697235 794.152100,194.633377 
	C786.941040,194.633377 780.717834,193.812515 774.796875,194.801422 
	C761.804260,196.971420 753.595215,191.999710 748.095947,180.341705 
	C745.283569,174.379547 740.829590,169.205353 737.298767,163.561691 
	C735.919128,161.356445 734.551575,160.582626 731.737793,160.707581 
	C721.090393,161.180435 710.419922,161.114685 699.760254,161.348892 
	C698.021057,161.387115 696.292847,161.922012 694.453247,162.665863 
M694.297119,81.654816 
	C694.297119,99.071388 694.297119,116.487953 694.297119,134.047546 
	C706.851501,134.047546 718.694885,134.584167 730.469177,133.911545 
	C745.145325,133.073135 756.446716,121.660934 757.887268,107.470352 
	C759.295532,93.598724 750.420959,79.287506 736.263855,76.857529 
	C722.690918,74.527817 708.607239,75.174019 694.297241,74.490860 
	C694.297241,77.432648 694.297241,79.068420 694.297119,81.654816 
z"/>
<path fill="#4A4A4A" opacity="1.000000" stroke="none" 
	d="
M1175.517822,190.530136 
	C1144.270142,176.871857 1127.226196,146.281097 1131.104126,111.239075 
	C1134.562012,79.993378 1159.186890,53.949108 1191.021729,47.867863 
	C1225.031250,41.371193 1256.642700,53.572826 1273.847290,80.659256 
	C1302.007935,124.994507 1278.609741,187.767975 1220.375000,196.131088 
	C1205.041992,198.333054 1190.204834,196.542038 1175.517822,190.530136 
M1172.470337,93.046280 
	C1166.968262,100.871353 1164.133179,109.569611 1163.633911,119.120567 
	C1161.965820,151.022461 1189.166016,174.414246 1219.369141,166.987503 
	C1241.052856,161.655640 1254.767944,140.087021 1252.167603,115.408348 
	C1250.189941,96.640388 1237.795776,81.398697 1220.465088,76.422684 
	C1202.796631,71.349670 1184.723145,77.459465 1172.470337,93.046280 
z"/>
<path fill="#FCD507" opacity="1.000000" stroke="none" 
	d="
M149.119141,54.763870 
	C104.382248,40.672188 61.379078,71.464615 59.879990,118.195343 
	C59.827026,119.846336 59.272526,121.912827 58.179653,123.031059 
	C48.867283,132.559540 39.379066,141.916245 29.925222,151.305984 
	C29.602995,151.626022 29.087805,151.751801 28.648611,151.975204 
	C16.968670,118.702377 26.266577,69.058624 69.065369,36.922825 
	C109.423676,6.619482 163.027145,8.508480 201.441620,42.341106 
	C238.242966,74.753006 244.173553,123.490593 228.566528,158.068192 
	C219.537170,149.068787 210.539322,140.242371 201.784332,131.181320 
	C200.780472,130.142365 200.889587,127.792313 200.892807,126.050926 
	C200.952347,93.759933 180.218445,65.012749 149.119141,54.763870 
z"/>
<path fill="#4B4B4B" opacity="1.000000" stroke="none" 
	d="
M521.302734,190.390930 
	C520.052429,192.033295 518.999084,194.406769 517.876648,194.439911 
	C507.964020,194.732666 498.039124,194.609802 487.328461,194.609802 
	C488.897583,190.832321 490.101593,187.804138 491.403717,184.818756 
	C510.600098,140.806976 529.847229,96.817184 548.941284,52.761086 
	C550.400024,49.395397 552.080994,47.988724 555.868713,48.148849 
	C563.516357,48.472149 571.192627,48.095169 578.843933,48.372169 
	C580.371704,48.427479 582.635132,49.763866 583.221619,51.097736 
	C603.952820,98.245171 624.524963,145.462555 645.104309,192.676682 
	C645.287903,193.097885 645.266602,193.608353 645.429199,194.633575 
	C635.488464,194.633575 625.733704,194.731964 615.986755,194.502350 
	C614.837830,194.475281 613.270386,192.864059 612.684631,191.617188 
	C610.072144,186.055969 607.639282,180.402786 605.365662,174.693573 
	C604.387451,172.237305 603.198364,171.138412 600.317383,171.156418 
	C578.000549,171.295761 555.682129,171.296875 533.365356,171.157455 
	C530.333740,171.138519 528.942749,172.216385 527.905457,174.903412 
	C525.932251,180.014587 523.632019,184.999481 521.302734,190.390930 
M590.174866,146.814224 
	C591.209229,146.644333 592.243591,146.474457 593.695557,146.235992 
	C584.600830,123.730278 575.695923,101.694313 566.562256,79.092278 
	C557.359131,101.931671 548.429749,124.091743 539.273499,146.814880 
	C556.665833,146.814880 572.951233,146.814880 590.174866,146.814224 
z"/>
<path fill="#4A4A4A" opacity="1.000000" stroke="none" 
	d="
M1003.044922,109.894958 
	C990.633118,89.861084 996.275879,66.375191 1016.338867,54.802303 
	C1034.401245,44.383400 1053.842896,44.468689 1073.562012,48.425617 
	C1084.590576,50.638680 1094.748535,55.082577 1104.629028,61.687885 
	C1100.879028,69.655487 1097.167847,77.540665 1093.855347,84.578674 
	C1083.979858,81.453888 1074.719116,77.772835 1065.109741,75.740425 
	C1058.423950,74.326378 1051.240967,74.817429 1044.317139,75.176064 
	C1041.155762,75.339806 1037.820801,76.788605 1035.021729,78.432823 
	C1026.895752,83.206085 1026.668335,93.256477 1034.916016,97.773369 
	C1040.219727,100.678062 1046.279907,102.404816 1052.184082,103.969299 
	C1066.016357,107.634560 1079.977051,110.829552 1092.281250,118.635712 
	C1117.359497,134.546356 1117.894531,168.776581 1093.227295,185.463562 
	C1079.738770,194.588364 1064.462524,197.263214 1048.525513,196.980484 
	C1029.120728,196.636230 1011.023376,192.096359 995.156555,180.249435 
	C992.240479,178.072205 991.404785,176.383728 993.231506,172.969559 
	C996.660767,166.560272 999.594238,159.885696 1002.921570,152.929260 
	C1013.305969,160.201538 1024.029663,165.653610 1036.240845,167.575089 
	C1045.681519,169.060638 1055.137695,169.918884 1064.379272,166.578796 
	C1067.007080,165.629089 1069.640015,164.385376 1071.889893,162.752151 
	C1080.954956,156.171936 1080.365112,145.095322 1070.289185,140.308182 
	C1064.206665,137.418304 1057.470215,135.779953 1050.900146,134.068146 
	C1038.331299,130.793427 1025.614990,127.854050 1014.674622,120.484657 
	C1010.465210,117.649147 1007.033386,113.659111 1003.044922,109.894958 
z"/>
<path fill="#F2A545" opacity="1.000000" stroke="none" 
	d="
M60.123413,153.123260 
	C82.420509,130.688766 104.467346,108.503998 126.233185,86.601982 
	C155.995544,116.536560 185.176208,145.886078 213.893494,174.769531 
	C206.453506,182.218872 198.157303,190.525513 189.350067,199.343842 
	C170.269058,179.705856 150.370789,159.226746 129.987259,138.248199 
	C108.923607,159.121323 89.018761,178.846100 69.381477,198.305740 
	C60.184982,189.024796 51.335621,180.094193 42.250431,170.925583 
	C47.856987,165.341339 53.865067,159.357162 60.123413,153.123260 
z"/>
<path fill="#4D4D4D" opacity="1.000000" stroke="none" 
	d="
M1341.058838,95.000000 
	C1341.058838,119.277977 1341.058838,143.055954 1341.058838,167.279938 
	C1369.400146,167.279938 1397.300903,167.279938 1425.579224,167.279938 
	C1425.579224,176.436966 1425.579224,185.160339 1425.579224,194.271347 
	C1387.183472,194.271347 1348.648682,194.271347 1309.714966,194.271347 
	C1309.714966,145.821243 1309.714966,97.322983 1309.714966,48.529453 
	C1320.066406,48.529453 1330.290894,48.529453 1341.058838,48.529453 
	C1341.058838,63.964100 1341.058838,79.232048 1341.058838,95.000000 
z"/>
<path fill="#FCD507" opacity="1.000000" stroke="none" 
	d="
M132.250641,182.746887 
	C142.228088,192.765549 151.954773,202.533798 162.235306,212.858276 
	C138.458664,212.858276 115.369034,212.858276 91.123756,212.858276 
	C102.740227,200.200409 113.784431,188.166107 125.527977,175.369766 
	C127.829453,177.904099 129.914673,180.200287 132.250641,182.746887 
z"/>
<path fill="#FDFDFD" opacity="1.000000" stroke="none" 
	d="
M694.297180,81.179504 
	C694.297241,79.068420 694.297241,77.432648 694.297241,74.490860 
	C708.607239,75.174019 722.690918,74.527817 736.263855,76.857529 
	C750.420959,79.287506 759.295532,93.598724 757.887268,107.470352 
	C756.446716,121.660934 745.145325,133.073135 730.469177,133.911545 
	C718.694885,134.584167 706.851501,134.047546 694.297119,134.047546 
	C694.297119,116.487953 694.297119,99.071388 694.297180,81.179504 
z"/>
<path fill="#FEFEFE" opacity="1.000000" stroke="none" 
	d="
M1172.699951,92.769226 
	C1184.723145,77.459465 1202.796631,71.349670 1220.465088,76.422684 
	C1237.795776,81.398697 1250.189941,96.640388 1252.167603,115.408348 
	C1254.767944,140.087021 1241.052856,161.655640 1219.369141,166.987503 
	C1189.166016,174.414246 1161.965820,151.022461 1163.633911,119.120567 
	C1164.133179,109.569611 1166.968262,100.871353 1172.699951,92.769226 
z"/>
<path fill="#FCFCFC" opacity="1.000000" stroke="none" 
	d="
M589.705811,146.814545 
	C572.951233,146.814880 556.665833,146.814880 539.273499,146.814880 
	C548.429749,124.091743 557.359131,101.931671 566.562256,79.092278 
	C575.695923,101.694313 584.600830,123.730278 593.695557,146.235992 
	C592.243591,146.474457 591.209229,146.644333 589.705811,146.814545 
z"/>
</svg>